<?xml version="1.0" encoding="utf-8"?>
<!-- Generator: Adobe Illustrator 26.0.3, SVG Export Plug-In . SVG Version: 6.00 Build 0)  -->
<svg version="1.1" id="Layer_1" xmlns="http://www.w3.org/2000/svg" xmlns:xlink="http://www.w3.org/1999/xlink" x="0px" y="0px"
	 viewBox="0 0 308.1 95.7" style="enable-background:new 0 0 308.1 95.7;" xml:space="preserve">
<style type="text/css">
	.st0{enable-background:new    ;}
	.st1{fill:#FFFFFF;}
</style>
<g class="st0">
	<path class="st1" d="M53,70.3h-1.2l-2-4H1.8V65c2.4-0.3,4.1-0.7,5.1-1.4c1.1-0.6,1.8-1.6,2.1-3c0.3-1.4,0.5-3.4,0.5-6.2V26
		c0-2.8-0.2-4.9-0.5-6.2c-0.3-1.4-1.1-2.4-2.1-3c-1.1-0.6-2.8-1.1-5.1-1.4v-1.3h46.9l1.9-3.6h1.1L62.1,36l-1.2,0.6
		c-4-4.6-7.5-8.2-10.6-10.9s-6.5-5-10.2-6.7s-7.9-2.8-12.6-3.1v22.3h0.3c5.5,0,9.7-1,12.6-3.1c2.9-2,4.4-4.8,4.7-8.4h1.4v26.4h-1.4
		c-0.2-4.6-1.7-7.8-4.5-9.9s-7.1-3.1-12.7-3.1h-0.3v24.4c4.9-0.4,9.3-1.5,13.4-3.5c4-1.9,7.8-4.4,11.1-7.5s6.9-6.9,10.6-11.4
		l1.2,0.6L53,70.3z"/>
</g>
<g class="st0">
	<path class="st1" d="M128,40.2c0,5.8-1.3,10.7-3.9,14.6c-2.6,3.9-6.2,6.8-10.7,8.7c-4.6,1.9-9.8,2.8-15.7,2.8H63.6V65
		c2.4-0.3,4.1-0.7,5.1-1.4c1.1-0.6,1.8-1.6,2.1-3c0.3-1.4,0.5-3.4,0.5-6.2V26c0-2.8-0.2-4.9-0.5-6.2c-0.3-1.4-1.1-2.4-2.1-3
		c-1.1-0.6-2.8-1.1-5.1-1.4v-1.3h34.1c9.1,0,16.4,2.2,22,6.5S128,31.4,128,40.2z M104.2,62.1c1.7-1.4,2.9-3.9,3.7-7.4
		c0.8-3.5,1.2-8.3,1.2-14.5c0-6.2-0.4-11.1-1.2-14.5c-0.8-3.5-2.1-5.9-3.7-7.3c-1.7-1.4-3.9-2.1-6.6-2.1h-8.4v48.1h8.4
		C100.4,64.2,102.6,63.5,104.2,62.1z"/>
</g>
<g class="st0">
	<path class="st1" d="M197.4,14.1v1.3c-2.1,0.4-4.5,2-7.4,4.7s-5.5,6.4-8.2,11.2l-12,22.8c2.3,3.2,4.9,5.4,7.7,6.5v0.8
		c-3.9,0.4-7.6,1.4-10.9,2.8s-6.2,3.2-8.6,5.4h-0.7l-22.3-42.3c-1.9-3.6-3.8-6.4-5.6-8.4c-1.8-2-3.7-3.1-5.7-3.5v-1.3h34.5v1.3
		c-3.9,0-5.8,1.4-5.8,4.3c0,1.9,0.9,4.4,2.6,7.6l11.5,21.4c0.2,0.5,0.8,1.5,1.8,3.1l7.6-15.3c1.9-3.4,2.8-6.6,2.8-9.6
		c0-3.2-0.9-5.8-2.8-7.9s-4.1-3.3-6.6-3.5v-1.3H197.4z"/>
	<path class="st1" d="M199,63.7c1.1-0.6,1.8-1.6,2.1-3c0.3-1.4,0.5-3.4,0.5-6.2V26c0-2.8-0.2-4.9-0.5-6.2c-0.3-1.4-1.1-2.4-2.1-3
		c-1.1-0.6-2.8-1.1-5.1-1.4v-1.3h33.5v1.3c-2.4,0.3-4.1,0.7-5.1,1.4c-1.1,0.6-1.8,1.6-2.1,3s-0.5,3.4-0.5,6.2v28.5
		c0,2.8,0.2,4.9,0.5,6.2s1.1,2.4,2.1,3c1.1,0.6,2.8,1.1,5.1,1.4v1.3h-33.5V65C196.2,64.8,197.9,64.3,199,63.7z"/>
	<path class="st1" d="M284.8,30.9v20c1.6,1.9,3,3.4,4.2,4.3c1.2,1,2.6,1.8,4.2,2.5v0.8c-3.2,1-5.8,2.3-7.8,4c-2,1.7-4,4.1-6.1,7.2
		h-0.7L239.4,28c0.3,3.3,0.4,8.3,0.4,15v6.4c0,4.4,1.5,8.1,4.4,10.8c2.9,2.8,6.7,4.4,11.2,4.7v1.3h-29.1V65
		c7.6-0.6,11.3-5.8,11.3-15.6V31.8c0-5.4-0.8-9.3-2.5-11.9s-4.5-4.1-8.6-4.5v-1.3h24l32.2,34.7c-0.2-3.1-0.2-6.5-0.2-10.4v-5.8
		c0-5.2-1.4-9.3-4.2-12.2c-2.8-2.9-6.5-4.6-11.1-5v-1.3h28.8v1.3C288.6,16,284.8,21.2,284.8,30.9z"/>
</g>
</svg>
