<?xml version="1.0" encoding="utf-8"?>
<!-- Generator: Adobe Illustrator 26.0.3, SVG Export Plug-In . SVG Version: 6.00 Build 0)  -->
<svg version="1.1" id="Layer_1" xmlns="http://www.w3.org/2000/svg" xmlns:xlink="http://www.w3.org/1999/xlink" x="0px" y="0px"
	 viewBox="0 0 119.2 679.6" style="enable-background:new 0 0 119.2 679.6;" xml:space="preserve">
<style type="text/css">
	.st0{enable-background:new    ;}
	.st1{fill:#FFFFFF;}
</style>
<g class="st0">
	<path class="st1" d="M81.6,26.2V11.1l-5.3-2.4V0.5l38.7,18v0.2L76.3,36.8v-8.2L81.6,26.2z M88,23.3l10.1-4.6L88,14.1V23.3z"/>
	<path class="st1" d="M83.8,63.4h-7.5V40.6h37.8v7.6H83.8V63.4z"/>
	<path class="st1" d="M83.8,90.4h-7.5V67.7h37.8v7.6H83.8V90.4z"/>
	<path class="st1" d="M106.5,132.7v-9.3H76.3v-7.6h30.3v-9.3h7.5v26.2H106.5z"/>
	<path class="st1" d="M114.1,165.7H76.3v-7.6h15.1v-13.6H76.3v-7.6h37.8v7.6H98.9v13.6h15.1V165.7z"/>
	<path class="st1" d="M106.6,179.8h-7.4v13h-7.6v-13h-7.8V195h-7.5v-22.8h37.8V195h-7.5V179.8z"/>
	<path class="st1" d="M114.1,214.6v13.3c0,7.3-5.7,13.3-12.8,13.3c-7,0-12.7-6-12.7-13.3v-5.7H76.3v-7.6H114.1z M101.4,233.6
		c2.9,0,5.2-2.6,5.2-5.7v-5.7H96.1l0,5.7C96,231,98.4,233.6,101.4,233.6z"/>
	<path class="st1" d="M106.6,253.1h-7.4v13h-7.6v-13h-7.8v15.2h-7.5v-22.8h37.8v22.8h-7.5V253.1z"/>
	<path class="st1" d="M95.1,272.2c10.9,0,19.7,8.8,19.7,19.6s-8.9,19.7-19.7,19.7c-10.8,0-19.6-8.9-19.6-19.7
		C75.6,281,84.4,272.2,95.1,272.2z M95.2,303.8c6.6,0,12-5.4,12-12c0-6.6-5.4-12-12-12c-6.6,0-11.9,5.4-11.9,12
		C83.2,298.4,88.6,303.8,95.2,303.8z"/>
	<path class="st1" d="M114.1,316.4v13.3c0,7.3-5.7,13.3-12.8,13.3c-7,0-12.7-6-12.7-13.3V324H76.3v-7.6H114.1z M101.4,335.4
		c2.9,0,5.2-2.6,5.2-5.7V324H96.1l0,5.7C96,332.8,98.4,335.4,101.4,335.4z"/>
	<path class="st1" d="M83.8,370h-7.5v-22.8h37.8v7.6H83.8V370z"/>
	<path class="st1" d="M106.6,381.9h-7.4v13h-7.6v-13h-7.8v15.2h-7.5v-22.8h37.8v22.8h-7.5V381.9z"/>
	<path class="st1" d="M81.6,439.6v-15.1l-5.3-2.4v-8.2l38.7,18v0.2l-38.7,18.1V442L81.6,439.6z M88,436.7l10.1-4.6L88,427.5V436.7z"
		/>
	<path class="st1" d="M76.3,473.7l17.9-12H76.3v-7.6l37.8,0v12.3c0,7.1-5.4,12.8-12.2,12.8c-4.9,0-9.1-2.9-10.5-7l-15,10.7V473.7z
		 M97,461.6l0,4.9c0,2.6,2.1,4.9,4.8,4.9s4.8-2.3,4.8-4.9v-4.9H97z"/>
	<path class="st1" d="M106.6,494.2h-7.4v13h-7.6v-13h-7.8v15.2h-7.5v-22.8h37.8v22.8h-7.5V494.2z"/>
</g>
<g class="st0">
	<path class="st1" d="M49,24.9h-7.6v13h-7.6v-13H18.6v-7.6h37.9v22.8H49V24.9z"/>
</g>
<g class="st0">
	<path class="st1" d="M23.9,62.6V47.5l-5.3-2.4v-8.2l38.7,18v0.2L18.7,73.3V65L23.9,62.6z M30.4,59.7l10.1-4.6l-10.1-4.6V59.7z"/>
	<path class="st1" d="M18.7,96.1l16.5-11.5H18.7V77h37.8v7.6H40.1l16.3,10.6v8.8L38,91.9l-19.3,13.5V96.1z"/>
	<path class="st1" d="M49,116.5h-7.4v13H34v-13h-7.8v15.2h-7.5v-22.8h37.8v22.8H49V116.5z"/>
	<path class="st1" d="M30.1,177.4c-5.6,0-11.5-4-11.5-11.8v-14.3h37.8v10.3c0,6.7-4.9,11-10,11c-4,0-6.5-2.6-6.5-3.6
		C40,172.7,36.2,177.4,30.1,177.4z M30.7,170c2.2,0,4.4-1.5,4.4-5.1v-6h-9v6C26.1,167.4,27.8,170,30.7,170z M49.1,158.9h-7.4v3.1
		c0,1.8,1.5,3.6,3.8,3.6c2.1,0,3.6-1.7,3.6-3.4V158.9z"/>
	<path class="st1" d="M32.6,181.4h23.8v7.6H32.7c-4.1,0-7.1,3.3-7.1,6.9s3,7,7.1,7h23.8v7.6H32.6c-8.6,0-14.8-6.5-14.8-14.6
		S24.1,181.4,32.6,181.4z"/>
	<path class="st1" d="M48.9,240.7v-9.3H18.7v-7.6h30.3v-9.3h7.5v26.2H48.9z"/>
	<path class="st1" d="M56.5,259v7.6H18.7V259H56.5z"/>
	<path class="st1" d="M26.2,310h-7.5v-22.8h37.8v7.6H26.2V310z"/>
	<path class="st1" d="M56.5,314.2v7.6H18.7v-7.6H56.5z"/>
	<path class="st1" d="M18.7,347.5L35.2,336H18.7v-7.6h37.8v7.6H40.1l16.3,10.6v8.8L38,343.2l-19.3,13.5V347.5z"/>
	<path class="st1" d="M49,367.9h-7.4v13H34v-13h-7.8v15.2h-7.5v-22.8h37.8v22.8H49V367.9z"/>
</g>
<g class="st0">
	<path class="st1" d="M34.9,411.6l21.6-11.7v8.6l-13.1,6.9l13.1,6.9v8.6l-21.6-11.7H18.7v-7.5H34.9z"/>
</g>
<g class="st0">
	<path class="st1" d="M37.5,428.8c10.9,0,19.7,8.8,19.7,19.6s-8.9,19.7-19.7,19.7c-10.8,0-19.6-8.9-19.6-19.7
		C17.9,437.6,26.8,428.8,37.5,428.8z M37.6,460.4c6.6,0,12-5.4,12-12c0-6.6-5.4-12-12-12c-6.6,0-11.9,5.4-11.9,12
		C25.6,455,31,460.4,37.6,460.4z"/>
	<path class="st1" d="M32.6,472.7h23.8v7.6H32.7c-4.1,0-7.1,3.3-7.1,6.9s3,7,7.1,7h23.8v7.6H32.6c-8.6,0-14.8-6.5-14.8-14.6
		S24.1,472.7,32.6,472.7z"/>
</g>
<g class="st0">
	<path class="st1" d="M86.2,537.9H84V530h2.2V537.9z"/>
	<path class="st1" d="M99.1,550.1v2.9l-20,6.1l20,5.9v3.1l-20,6l20,6.1v2.9l-23.5-7.2v-3.2l20.4-6l-20.4-6.1v-3.2L99.1,550.1z"/>
	<path class="st1" d="M92.3,586.5v2.7H75.6v-2.7H92.3z M98.4,587.9c0-0.6-0.2-1-0.6-1.4c-0.4-0.4-0.8-0.6-1.4-0.6
		c-0.6,0-1,0.2-1.4,0.6c-0.4,0.4-0.6,0.9-0.6,1.4c0,0.5,0.2,1,0.6,1.4s0.8,0.6,1.4,0.6c0.5,0,1-0.2,1.4-0.6
		C98.2,588.9,98.4,588.4,98.4,587.9z"/>
	<path class="st1" d="M99.1,594.5v2.6H75.6v-2.6H99.1z"/>
	<path class="st1" d="M99.1,601.8v2.7H90c1.8,1.7,2.7,3.7,2.7,6c0,1.8-0.6,3.3-1.8,4.5c-1.2,1.2-2.8,1.8-4.9,1.8H75.6v-2.7h10.4
		c1.4,0,2.5-0.4,3.4-1.1s1.3-1.8,1.3-3.1c0-1.4-0.5-2.7-1.5-3.8c-1-1.1-2.4-1.6-4.2-1.6h-9.3v-2.7H99.1z"/>
	<path class="st1" d="M84,620.6c2.5,0,4.6,0.8,6.3,2.4s2.5,3.6,2.5,6c0,2.4-0.8,4.4-2.5,5.8c-1.6,1.5-3.7,2.2-6.3,2.2
		c-0.5,0-0.9,0-1,0v-13.7c-0.2,0-0.5,0.1-0.8,0.1c-1.5,0.3-2.6,1-3.5,2.1c-0.9,1.1-1.3,2.4-1.3,3.9c0,1.8,0.6,3.3,1.9,4.5l-1.1,2.4
		c-2-1.5-3-3.9-3-6.9c0-2.6,0.8-4.7,2.5-6.4C79.3,621.4,81.4,620.6,84,620.6z M89,625.1c-1.1-1-2.4-1.6-4.1-1.8v11.3
		c1.7-0.2,3.1-0.8,4.1-1.8c1.1-1,1.6-2.3,1.6-3.9S90,626.1,89,625.1z"/>
	<path class="st1" d="M99.1,641.1v2.6H75.6v-2.6H99.1z"/>
	<path class="st1" d="M92.7,656.5c0,2.4-1.1,4.1-3.2,5.3c2.1,1.9,3.2,4,3.2,6.1c0,1.7-0.6,3.1-1.8,4.3c-1.2,1.1-2.8,1.7-4.9,1.7
		H75.6v-2.7h10.4c3.1,0,4.6-1.2,4.6-3.7c0-1.3-0.5-2.5-1.5-3.5c-1-1-2.4-1.5-4.2-1.5h-9.3v-2.6h10.4c3.1,0,4.6-1.3,4.6-3.8
		c0-1.3-0.5-2.5-1.5-3.5c-1-1-2.4-1.5-4.2-1.5h-9.3v-2.6h16.8v2.6H90C91.8,652.6,92.7,654.4,92.7,656.5z"/>
</g>
<g class="st0">
	<path class="st1" d="M21.6,558.8v-34.5c3.2,0,5.9,0.6,8.1,1.8c2.2,1.2,4.1,2.7,5.5,4.5c1.4,1.8,3,4.1,4.7,6.9
		c1.4,2.3,2.6,4.1,3.5,5.4c1,1.3,2.1,2.4,3.5,3.2c1.4,0.9,2.9,1.3,4.7,1.3c4.6,0,6.8-2.3,6.8-7c0-1.8-0.3-3.6-1-5.2
		c-0.7-1.7-1.8-2.9-3.3-3.8c0,0.2,0.1,0.5,0.1,0.9c0,1.4-0.4,2.6-1.3,3.6s-2.1,1.6-3.7,1.6c-1.7,0-3.1-0.6-4.1-1.7
		c-1-1.1-1.5-2.5-1.5-4.1s0.5-3,1.5-4.2c1-1.2,2.5-1.8,4.5-1.8c3.6,0,6.3,1.6,8,4.8c1.7,3.2,2.6,7.2,2.6,12c0,4.8-0.8,9.1-2.4,13
		c-1.6,3.9-4.3,5.8-8.3,5.8c-2.5,0-4.5-0.9-6.1-2.6c-1.6-1.7-2.8-3.8-3.6-6.2c-0.9-2.4-1.8-5.6-2.7-9.7c-0.9-4-1.8-7.1-2.6-9.3
		c-0.8-2.2-1.9-3.9-3.3-5v24.1c0,2.5,0.5,4.3,1.5,5.5c1,1.2,2.5,2.2,4.5,2.8L37,562L21.6,558.8z"/>
	<path class="st1" d="M29.6,570.1c2.9-1.8,6.6-2.8,10.9-2.8c4.3,0,8,0.9,10.9,2.8c3,1.8,5.2,4.3,6.6,7.4s2.1,6.5,2.1,10.2
		c0,3.7-0.7,7.1-2.1,10.1c-1.4,3.1-3.6,5.5-6.6,7.3c-3,1.8-6.6,2.8-10.9,2.8c-4.3,0-8-0.9-10.9-2.8c-2.9-1.8-5.1-4.3-6.6-7.3
		c-1.4-3.1-2.1-6.4-2.1-10.1c0-3.8,0.7-7.2,2.1-10.2S26.6,571.9,29.6,570.1z M29.4,593.8c2.6,0.4,6.3,0.6,11.1,0.6
		c4.8,0,8.5-0.2,11.1-0.6c2.6-0.4,4.4-1.1,5.4-2.1c1-1,1.6-2.3,1.6-4.1c0-1.8-0.5-3.2-1.6-4.1c-1-1-2.9-1.7-5.5-2.1
		c-2.6-0.4-6.3-0.6-11.1-0.6c-4.8,0-8.5,0.2-11.1,0.6c-2.6,0.4-4.4,1.1-5.5,2.1c-1.1,1-1.6,2.3-1.6,4.1c0,1.7,0.5,3.1,1.6,4.1
		C25,592.7,26.9,593.4,29.4,593.8z"/>
	<path class="st1" d="M21.6,646.3v-34.5c3.2,0,5.9,0.6,8.1,1.8c2.2,1.2,4.1,2.7,5.5,4.5s3,4.1,4.7,6.9c1.4,2.3,2.6,4.1,3.5,5.4
		s2.1,2.4,3.5,3.2c1.4,0.9,2.9,1.3,4.7,1.3c4.6,0,6.8-2.3,6.8-7c0-1.8-0.3-3.6-1-5.2c-0.7-1.7-1.8-2.9-3.3-3.8
		c0,0.2,0.1,0.5,0.1,0.9c0,1.4-0.4,2.6-1.3,3.6c-0.9,1.1-2.1,1.6-3.7,1.6c-1.7,0-3.1-0.6-4.1-1.7c-1-1.1-1.5-2.5-1.5-4.1
		c0-1.6,0.5-3,1.5-4.2c1-1.2,2.5-1.8,4.5-1.8c3.6,0,6.3,1.6,8,4.8c1.7,3.2,2.6,7.2,2.6,12c0,4.8-0.8,9.1-2.4,13
		c-1.6,3.9-4.3,5.8-8.3,5.8c-2.5,0-4.5-0.9-6.1-2.6c-1.6-1.7-2.8-3.8-3.6-6.2s-1.8-5.6-2.7-9.7c-0.9-4-1.8-7.1-2.6-9.3
		c-0.8-2.2-1.9-3.9-3.3-5v24.1c0,2.5,0.5,4.3,1.5,5.5s2.5,2.2,4.5,2.8l-0.1,0.9L21.6,646.3z"/>
	<path class="st1" d="M23.5,657.7c0.5,0.8,1.2,1.3,2.1,1.6c1,0.3,2.5,0.4,4.5,0.4h15c2.2,0,3.8-0.1,4.8-0.4c1-0.3,1.8-0.8,2.3-1.6
		c0.5-0.8,0.8-2.1,1-3.9h0.9c0.3,3.1,1.2,6.1,2.5,9c1.3,2.9,3,5.9,5,8.8v1H30.2c-2.1,0-3.6,0.1-4.6,0.4c-1,0.3-1.7,0.8-2.1,1.6
		c-0.4,0.8-0.8,2.1-1,3.9h-0.9v-24.8h0.9C22.8,655.6,23.1,656.8,23.5,657.7z"/>
</g>
</svg>
