<svg id="Layer_1" data-name="Layer 1" xmlns="http://www.w3.org/2000/svg" viewBox="0 0 535.67 60.2"><defs><style>.cls-1{fill:#fff;}</style></defs><path class="cls-1" d="M91.11,410.94l-1.12.57a93.25,93.25,0,0,0-15.87-15.07,37.21,37.21,0,0,0-16.2-7v21.53a19.65,19.65,0,0,0,6.59-1.36,15.42,15.42,0,0,0,5.75-3.78A10,10,0,0,0,73,399.93h1.53V428H73a15.88,15.88,0,0,0-2.85-8.48,13.58,13.58,0,0,0-5.75-4.58,18.55,18.55,0,0,0-6.51-1.4V426a26,26,0,0,0,.69,7,5.53,5.53,0,0,0,3,3.41c1.53.78,4,1.27,7.43,1.49v1.52H27.38v-1.52a11.67,11.67,0,0,0,5.11-1.53,5.43,5.43,0,0,0,2.17-3.42,34.47,34.47,0,0,0,.52-6.95V400.58a34.47,34.47,0,0,0-.52-6.95,5.43,5.43,0,0,0-2.17-3.42,11.67,11.67,0,0,0-5.11-1.53v-1.52H77.13l2.41-3.78h1.21Z" transform="translate(-27.38 -383.38)"/><path class="cls-1" d="M152.28,434.25a10.09,10.09,0,0,0,6.43,3.62v1.52H118.52v-1.52c3.54,0,5.31-1.4,5.31-4.18q0-3.13-3.22-9.24H98.83a7.51,7.51,0,0,0-.08,1.28,10,10,0,0,0,1.93,6.15,14.49,14.49,0,0,0,4.58,4.1,15.94,15.94,0,0,0,5,1.89v1.52H79.14v-1.52q4.59-.57,9-5.07t10-14.62l8.92-16.72Q103,396,99,394.07v-.81a52.5,52.5,0,0,0,13.38-3.37,32.87,32.87,0,0,0,10.33-6.43h1l22.42,41.23A54,54,0,0,0,152.28,434.25ZM99.31,422h19.86l-8.28-14.71-2.25-3.54-7.48,14A19.86,19.86,0,0,0,99.31,422Z" transform="translate(-27.38 -383.38)"/><path class="cls-1" d="M224.29,393.83c-2,3.1-3,7.18-3,12.21v14.07q3.21,3.28,5.06,5a14.35,14.35,0,0,0,3.86,2.57v.8a24,24,0,0,0-9.45,5.59,44.11,44.11,0,0,0-6.63,9.28h-.72l-41.15-38.89q.41,4.41.4,9.72v5.06a18.79,18.79,0,0,0,2.37,9.57,17.16,17.16,0,0,0,6.35,6.39,20.94,20.94,0,0,0,8.72,2.69v1.52h-32v-1.52q6.27-.48,9.12-5t2.85-11.73V406.77q0-9.09-2.69-13.31t-9.28-4.78v-1.52h28.53l31.58,29.89.56.49c0-1.13-.08-2.66-.08-4.59v-5.7a18.2,18.2,0,0,0-2.41-9.41,17.69,17.69,0,0,0-6.35-6.42,19.73,19.73,0,0,0-8.43-2.74v-1.52h32.06v1.52Q227.27,389.16,224.29,393.83Z" transform="translate(-27.38 -383.38)"/><path class="cls-1" d="M307.15,443.57H306l-2.82-4.18H252.42v-1.52a11.67,11.67,0,0,0,5.11-1.53,5.43,5.43,0,0,0,2.17-3.42,34.47,34.47,0,0,0,.52-6.95V400.58a34.47,34.47,0,0,0-.52-6.95,5.43,5.43,0,0,0-2.17-3.42,11.67,11.67,0,0,0-5.11-1.53v-1.52h49.43l2.65-3.78h1.21l9.88,26.92-1,.56A86,86,0,0,0,299,396.24a37.75,37.75,0,0,0-16-6.83v21.53a18.46,18.46,0,0,0,6.43-1.4,15.83,15.83,0,0,0,5.63-3.78,9.54,9.54,0,0,0,2.65-5.83h1.53v26.61l-1.53-.08q-.48-7.4-4.82-10.13a18.69,18.69,0,0,0-9.89-2.81v23.62A42,42,0,0,0,300.4,430,62.49,62.49,0,0,0,316,415l1.13.57Z" transform="translate(-27.38 -383.38)"/><path class="cls-1" d="M388.09,413.28q0,13.17-8.64,19.64t-23.35,6.47H319.37v-1.52a11.62,11.62,0,0,0,5.1-1.53,5.35,5.35,0,0,0,2.17-3.42,33.59,33.59,0,0,0,.53-6.95V400.58a33.59,33.59,0,0,0-.53-6.95,5.35,5.35,0,0,0-2.17-3.42,11.62,11.62,0,0,0-5.1-1.53v-1.52H356q14.7,0,23.39,6.43T388.09,413.28Zm-27.65,21.65q2.08-2,3.09-7.07a80.88,80.88,0,0,0,1-14.67,79.5,79.5,0,0,0-1-14.54q-1-5.07-3.09-7a8.18,8.18,0,0,0-5.79-1.93h-4.74V436.9h4.74A8.07,8.07,0,0,0,360.44,434.93Z" transform="translate(-27.38 -383.38)"/><path class="cls-1" d="M395.93,436.34a5.46,5.46,0,0,0,2.17-3.5,36.9,36.9,0,0,0,.52-7.19V400.9a36.9,36.9,0,0,0-.52-7.19,5.46,5.46,0,0,0-2.17-3.5,11.67,11.67,0,0,0-5.11-1.53v-1.52h38.26v1.52a11.38,11.38,0,0,0-5.07,1.53,5.5,5.5,0,0,0-2.13,3.5,36.9,36.9,0,0,0-.52,7.19v24.75a36.9,36.9,0,0,0,.52,7.19,5.5,5.5,0,0,0,2.13,3.5,11.38,11.38,0,0,0,5.07,1.53v1.52H390.82v-1.52A11.67,11.67,0,0,0,395.93,436.34Z" transform="translate(-27.38 -383.38)"/><path class="cls-1" d="M500,413.92l-1.12.56A142.76,142.76,0,0,0,487,399a34.54,34.54,0,0,0-10.73-8.36V426a33.59,33.59,0,0,0,.53,6.95,5.38,5.38,0,0,0,2.13,3.42,11.47,11.47,0,0,0,5.14,1.53v1.52H445.23v-1.52a13,13,0,0,0,5.51-1.53,5.29,5.29,0,0,0,2.25-3.42,33.74,33.74,0,0,0,.52-6.95V390.53a34.54,34.54,0,0,0-10.73,8.36,146.91,146.91,0,0,0-12,15.59l-1.13-.56,8.92-30.54h1.21l3,3.78H487.1l2.82-3.78h1.2Z" transform="translate(-27.38 -383.38)"/><path class="cls-1" d="M534.28,399.77q8.69,3.3,14.47,6.11a34.86,34.86,0,0,1,10,7.27,14.62,14.62,0,0,1,4.26,10.41q0,9.4-6.71,13.22t-19.17,3.82a39.42,39.42,0,0,1-9.44-1,75.16,75.16,0,0,1-8.88-3c-.43-.21-1.07-.48-1.93-.8l-7.07,5.38h-1.13L503.9,410.7l1.45-.24q7.23,13.83,15.51,20.7T538.14,438a20.88,20.88,0,0,0,6.35-1c2.2-.69,3.29-2,3.29-3.85q0-2.34-3.49-4.3a98,98,0,0,0-11-4.95q-8.36-3.28-13.7-6a33.38,33.38,0,0,1-9.29-7,13.88,13.88,0,0,1-3.94-9.76q0-8.44,7-11.77T530.42,386a50.38,50.38,0,0,1,9.81.84,49.52,49.52,0,0,1,8.28,2.46l6.59-4h1.2l5.23,23.54-1.37.33A77.39,77.39,0,0,0,548.59,396a30.63,30.63,0,0,0-9.73-6,29.56,29.56,0,0,0-9.48-1.49,15.74,15.74,0,0,0-6,.93c-1.44.61-2.17,1.51-2.17,2.69s1,2.37,3.06,3.41A104.78,104.78,0,0,0,534.28,399.77Z" transform="translate(-27.38 -383.38)"/></svg>