<svg id="Layer_1" data-name="Layer 1" xmlns="http://www.w3.org/2000/svg" viewBox="0 0 685.95 381.97"><defs><style>.cls-1{fill:#fff;}</style></defs><path class="cls-1" d="M745.18,407.45c-1.41,1.64-.86,3.55-.86,5.29q-.06,33.74,0,67.47a50,50,0,0,0,.36,6.47c1.18,9,3.62,11.66,12.4,14,1.45.38,4,0,3.61,2.38-.29,1.78-2.54,1.1-3.9,1.1q-19.49.09-39,0c-1.21,0-3,.59-3.31-1.22s1.59-1.73,2.81-2.06c10.57-2.78,13.37-5.64,13.48-16.53.3-29.64.17-59.29.25-88.94a6.21,6.21,0,0,0-2-4.9c-11-10.21-22.22-20.08-35.55-27.31-9.2-5-18.75-5.1-28.65-3.35-1.31.23-3.05,1.59-3.92-.51-1-2.36,1.3-2.71,2.63-3.42,20.78-11.1,40.2-9,58.66,5.6,18,14.22,33,31.44,48.33,48.31,17.58,19.35,35,38.84,52.51,58.26.64.72,1.4,1.34,2.11,2,1.85-1.14,1.1-2.81,1.1-4.15q.07-32.73,0-65.46c0-10.6-2.76-16.82-13.83-18.53-1.12-.17-2.63-.24-2.57-1.77.08-2,1.88-1.5,3.09-1.5q20.24,0,40.48,0c1.09,0,2.62-.44,2.83,1.2.24,2-1.51,1.75-2.75,2.05-10.7,2.61-13.56,5.75-13.64,16.93-.19,28-.06,56,0,83.95,0,1.47-.12,2.94,1.13,4.17,14.51,14.29,29.41,28.06,48.21,36.73,10.67,4.92,21.78,5.69,33.23,3.72,1.48-.26,3.52-1.64,4.4.53s-1.56,2.6-2.86,3.31c-19.35,10.55-38.27,9.28-56.86-2.07-17.81-10.88-32.34-25.57-47-40.12-25.08-24.91-47-52.74-71.19-78.42C747.79,409.43,747,407.84,745.18,407.45Z" transform="translate(-297.05 -348.81)"/><path class="cls-1" d="M315.21,611.36c0-11.82,0-23.64,0-35.47,0-2.32,0-4.66-.25-7-.94-10.5-3-13-13.06-16.14-1.09-.34-2.58-.34-2.59-1.82,0-1.74,1.58-1.46,2.64-1.4,21.15,1.14,42.26-2,63.39-.63a56.45,56.45,0,0,1,18.43,4.22c17.64,7.51,24.29,24.34,16.64,42-5.23,12.05-14.44,19.78-26.61,24-3.35,1.17-3.75,2.27-1.89,5.18C390.63,653.73,411.77,681,440,702a93.64,93.64,0,0,0,23,12.88c11,4.16,22,4.72,33.18.53,1.27-.47,2.95-2,3.86.06s-1.31,2.37-2.53,3c-19.15,9.36-38.27,7-57-.89-22.46-9.5-40-25.51-55.49-43.91a312.93,312.93,0,0,1-32-45.8c-2.26-3.93-4.7-6.06-9.35-5.31a27.89,27.89,0,0,1-6,0c-2.36-.14-3.27.83-3.21,3.21.28,10.64-.55,21.31.6,31.94.85,7.86,4.79,12.92,12.72,14.62,1.17.25,3.29,0,3.15,1.69-.18,2.15-2.37,1.2-3.62,1.21q-22,.12-44,0c-1.34,0-3.58.83-3.86-1-.31-2,2.15-1.7,3.41-2,7.06-1.76,10.69-6.39,11.49-13.4a109.59,109.59,0,0,0,.82-11.44c.11-12,0-24,0-36Zm19.26-21.6c0,6.75,0,12.57,0,18.39,0,1.57-.43,3.67,2.14,3.65,10.92-.06,22,1.29,32.34-3.82,10-5,14.58-13.4,14.2-24.28-.36-10.44-5.82-17.78-15.42-21.91-7.23-3.1-14.86-3.38-22.54-2.6-6.73.69-9.27,3.33-10.17,10.1C334.09,576.4,334.67,583.56,334.47,589.76Z" transform="translate(-297.05 -348.81)"/><path class="cls-1" d="M617.19,641.86c6.39-16.42,12.28-31.6,18.21-46.76,5.45-14,10.93-27.92,18.67-40.83a69.13,69.13,0,0,1,8.74-11.51c7.89-8.52,17.66-9.06,28.12-6.94,1.73.35,3.41,1,2.5,3.3-.66,1.68-.25,4.45-3.32,4.07-10.81-1.35-17,5.11-22.2,13.14-8.8,13.51-14.3,28.54-19.95,43.49-9.84,26-18.77,52.39-31.71,77.11-8.47,16.17-18.19,31.43-33.09,42.66-14.11,10.64-29.76,13.46-46.81,9.46A27.4,27.4,0,0,1,525.6,724c-8.56-6.69-9.9-16.36-3.35-25,2.84-3.77,6.59-6.53,10.41-9.24,2.73-1.94,4.81-.58,6.74.95,2.36,1.87-.21,3.29-1,4.55-3.6,5.73-4.34,11.54-.79,17.44,3.44,5.72,9.07,6.86,15.2,6.61,13.71-.55,23.81-7.56,32-17.93C593.18,690.81,599,678.8,605.07,667c1-2,.34-3.5-.34-5.19q-18.56-46.11-37.11-92.21c-3.42-8.47-7.55-16.2-18.23-16.82-1.07-.06-2-.47-1.88-1.79s1.21-1.39,2.24-1.39l45.47,0c1,0,2.09.16,2.08,1.53s-1,1.41-2,1.68c-11.57,3.05-12.09,3.76-7.71,15.07,9.16,23.59,18.56,47.09,27.88,70.63C615.74,639.26,616.19,640,617.19,641.86Z" transform="translate(-297.05 -348.81)"/><path class="cls-1" d="M486.55,508.19c-25.46-1-47.32-11.83-59.78-37-11.36-23-9.74-46,4.29-67.44,18-27.49,57.95-37.4,88.7-22.57,39.89,19.24,50.88,69.64,22.23,103.35C528.1,500.86,509.69,508,486.55,508.19Zm-45.8-69.12c-.07,12.66,2.63,23.65,7.53,32.67,17,31.3,57.59,34.21,77.5,5.56,14.83-21.34,14.85-50.76,0-72.33-16.33-23.78-48.65-26.74-68.87-6.16C445.47,410.49,441,425,440.75,439.07Z" transform="translate(-297.05 -348.81)"/><path class="cls-1" d="M485.93,545.75c34.85-.3,63.22,22.56,68.4,54.94,6.44,40.23-21.43,75.28-62.16,78.18-35.92,2.56-65.57-18.23-73.31-51.39a66.33,66.33,0,0,1,60.58-81.72C481.59,545.62,483.76,545.75,485.93,545.75ZM438.17,610.6c-.07,11.51,2.14,21.48,6.88,30.86,16.32,32.28,56.36,36,77.86,7.18,16.21-21.71,15-56.12-2.79-76.58-18.61-21.46-49.79-21.29-68.12.37C442.43,583.74,438.47,597,438.17,610.6Z" transform="translate(-297.05 -348.81)"/><path class="cls-1" d="M664,486.49c-2.86,1.3-3.71,3.4-5.07,4.95-16.84,19.2-54.34,20.52-71.29,2.36-8.14-8.73-11.35-19.51-11.48-31.15-.23-19.65-.05-39.31-.07-59a64.26,64.26,0,0,0-.32-7.48c-1.07-9.07-3.9-12.15-12.75-14.19-1.36-.32-3.55.05-3.38-2s2.32-1.33,3.66-1.33q22-.07,44,0c1.34,0,3.54-.88,3.9,1,.49,2.56-2.12,2-3.53,2.35-8.61,2.11-12.19,5.1-12.33,13.31-.42,24.46-1.75,49,.7,73.38,1.57,15.54,8.79,23.75,20.74,25.94,16.71,3,30.84-2.56,38.19-15.2,7.19-12.37,8.79-26.11,9.21-40,.41-13.31.29-26.65.13-40-.13-11.34-2.71-14.47-13.62-17.63-1.23-.35-3-.27-2.61-2.2.31-1.49,1.86-1.11,3-1.11q20.24,0,40.48.05c1.11,0,2.66-.47,3,1.05.37,1.89-1.37,1.85-2.63,2.19-11,3-13.56,5.48-13.7,16.92-.36,27.48-.3,55-.07,82.45.07,8.66,3.7,11.74,12.41,12.39,1.45.11,3.87-.94,3.9,1.68,0,2.13-2.23,1.55-3.56,1.75-8,1.13-15.74,2.52-22.5,7.47-3,2.17-4.46.75-4.34-2.86C664.15,496.75,664,491.85,664,486.49Z" transform="translate(-297.05 -348.81)"/><path class="cls-1" d="M962.49,459.15c5.5,0,11,0,16.49,0,1.35,0,3.32-.72,3.68,1.46s-1.55,2.16-3,2.37c-4.5.69-6.75,3.36-6.75,7.84,0,8.45-1.33,16.95,1,25.32.91,3.32-2,3.5-3.75,4.18a99.67,99.67,0,0,1-49,6.63c-25.9-3.07-45.85-15.21-55.93-39.95-16.36-40.15,7.65-82.51,50.41-90.16,18-3.22,35.82-1.61,53.57,2,2.66.54,3.54,1.56,3,4.39-1,5.72-1.65,11.53-2.51,17.29-.19,1.24-.14,2.88-2,3-1.48.13-1.9-1.09-2.26-2.23-2.76-8.9-9.76-12.75-18.08-14.6-34.46-7.67-65.42,16.73-66.3,52.14-.66,26.91,14.93,49.65,39.24,56.77,9.8,2.87,19.68,3.07,29.44-.64,2.56-1,3.65-2.4,3.57-5.16-.2-6-.24-12-.18-18,.05-5.44-2.5-8.37-7.9-8.95-1.37-.15-3.38.13-3.24-2.13s2.1-1.72,3.48-1.74c5.66-.06,11.32,0,17,0Z" transform="translate(-297.05 -348.81)"/><path class="cls-1" d="M765.07,675.1c-7.16,0-14.32,0-21.48,0-1.21,0-3,.66-3.17-1.34s1.59-1.73,2.84-2c9.64-2.1,11.36-5.24,7.58-14.35-3.32-8-7-15.86-10.27-23.85-1-2.52-2.44-3.55-5.21-3.52-13.15.11-26.31.08-39.47,0-2,0-3.46.44-4.36,2.45-3.5,7.74-7.39,15.3-10.59,23.16-3.86,9.48-.69,14.48,9.53,16,.82.13,1.65.19,2.48.28,1.23.15,2.46.45,2.22,2-.2,1.29-1.42,1.21-2.4,1.21q-22,0-44,0c-1,0-2.16,0-2.24-1.35s1.14-1.53,2.08-1.69c7.31-1.23,11.29-6,14.57-12.31,18.67-35.72,35.74-72.21,52.83-108.69.82-1.74,1-4.1,3.19-4.82,2.93-1,4.8-.13,6.09,3.11,11.25,28.13,23.5,55.84,36,83.43,4.39,9.69,8.17,19.67,13.51,28.92,3,5.15,6.94,8.91,13,10,1.18.22,2.52.4,2.36,2-.22,2-1.94,1.42-3.15,1.43-7.33,0-14.65,0-22,0Zm-47.93-98.37c-6.25,13.85-12,26.66-17.82,39.45-1.25,2.76.58,2.65,2.34,2.66,9.63,0,19.27,0,28.9.07,3.05,0,3.25-1.08,2.2-3.61C727.64,602.88,722.66,590.4,717.14,576.73Z" transform="translate(-297.05 -348.81)"/><path class="cls-1" d="M360.44,504.25c-7.66,0-15.32,0-23,0-1.07,0-2.7.49-2.85-1.1s1.52-1.49,2.59-1.7c8.46-1.68,12.64-7,12.87-15.41.29-10.82.27-21.64.4-32.46,0-1.77-.91-3.17-1.7-4.63-8.62-16-17.3-31.9-25.86-47.9-5.22-9.76-11.53-18-23.69-19.17-1-.1-2.16-.34-2.17-1.61,0-1.8,1.53-1.43,2.6-1.43q22.49,0,45,0c1,0,2.59-.35,2.53,1.49,0,1.3-1.26,1.31-2.21,1.54a29.22,29.22,0,0,0-3.36.92c-4.69,1.78-6.08,4.64-3.59,8.95,8.19,14.13,15.14,28.9,22.44,43.49,1.54,3.09,2.52,2.13,3.84-.12,7.49-12.78,15.2-25.44,22.5-38.33,5.21-9.18,4-11.7-6-14.88-1-.31-2.12-.45-2.06-1.7s1.22-1.37,2.23-1.37q22,0,44,0c.95,0,2.21,0,2.23,1.35s-1.1,1.53-2.12,1.65c-14.08,1.57-21.69,11.3-28.07,22.43-8.61,15-17.05,30.14-25.57,45.21a9.13,9.13,0,0,0-1.53,4.67c.1,10.66-.15,21.33.33,32,.42,9.5,3.64,12.85,12.81,15.31,1.16.32,3.31-.14,3.13,1.63-.21,2.09-2.38,1.12-3.67,1.16-3.66.11-7.33,0-11-.05s-7.33,0-11,0Z" transform="translate(-297.05 -348.81)"/><path class="cls-1" d="M972.52,559.62c-.2,3.33-.39,6.65-.61,10-.08,1.14,0,2.51-1.62,2.6-1.27.07-1.45-1-1.81-2-4.11-11.09-7.78-13.59-19.58-13.57a40.25,40.25,0,0,0-10.38,1.25c-8,2.1-13.69,6.61-15.65,15-2,8.6.29,15.8,6.93,21.6,3.79,3.32,8.23,5.63,12.7,7.87,7.29,3.66,14.79,7,21.82,11.06,15,8.74,20.94,21.55,17.91,37.22-2.12,11-9,18.17-18.9,22.24-17.54,7.21-35.58,7.78-53.81,2.52-2.34-.68-3.69-1.77-3.46-4.55.46-5.64.61-11.31.92-17,.07-1.12-.05-2.56,1.55-2.69s1.86,1.21,2.14,2.33c3.2,12.77,11.25,14.43,21.84,14.26a64.84,64.84,0,0,0,16.29-2.18c16.79-4.67,21.4-22.25,9.15-34.76-4-4.13-9-6.78-14.06-9.35-7.13-3.62-14.45-6.89-21.33-10.92-15.19-8.91-21.29-25.47-15.38-40.67,3.34-8.59,9.77-14.23,18-17.84,13.65-6,28-6.81,42.61-4.93,4.45.58,6,2.64,5.21,7a41.46,41.46,0,0,0-.37,5.48Z" transform="translate(-297.05 -348.81)"/><path class="cls-1" d="M814.25,564.79l-1.14-3.65,0,.24c-2-5.56-6.61-7.57-11.89-8.64-1.11-.22-2.67-.22-2.64-1.7,0-2,1.84-1.53,3.06-1.53q22.95,0,45.88,0c1.08,0,2.68-.4,2.83,1.22.18,1.94-1.65,1.73-2.85,2a18.8,18.8,0,0,0-11.12,6.11l-1,1.75-.54,2.23-.54,1.62c-.07.45-.13.89-.2,1.34-.83.56-1,1.19-.19,1.92q-.2,8.09-.38,16.18a.52.52,0,0,0,0,.76l0,2.27a2.51,2.51,0,0,0,0,2.7q.15,26.88.29,53.77c0,3.81,0,7.63.07,11.44-.81.74-.64,1.36.22,1.91.38,1.09.77,2.19,1.16,3.28l1.19,1.6,1.67,1.19a3.29,3.29,0,0,0,2.75,1l9.23.92c4.5,1,9-.31,13.49-.06a7.48,7.48,0,0,1,4.63-.65c1,1,1.76.21,2.57-.31a4.93,4.93,0,0,1,3.41-.7c.43.46.69.23.9-.22l2.63-.91c2.16-.23,4.37-.33,5.49-2.68a.7.7,0,0,1,.72-.57l-.17.09,1.13-1h-.34l5.76-4.95,2.54.92-.72,2.47.17-.24-1.1,1.84a2.31,2.31,0,0,0-.92,2.63,4.45,4.45,0,0,1-1,3.36c-1.33,1.39-2.2,2.92-1.41,4.92-.22,1.21-.44,2.43-.65,3.64l.09-.24c-.34,1.25-.23,2.66-1.27,3.66a1.53,1.53,0,0,0-.8.47l-2.43-.33c-1.51-.25-2.88-1.84-4.56-.46a48.78,48.78,0,0,1-11.06-.64c-.33,0-.67,0-1,0l-2,0c-1.56-1.41-3.47-.93-5.25-.94-7.65,0-15.29-.12-22.94,0-5.61.1-11.31-.82-16.83,1a3.61,3.61,0,0,1-2.9,0h-3.13a43.06,43.06,0,0,1-11.89.23c.33-.79.65-1.58,1-2.38l2.08-.61c.45.47.7.2.9-.25l2.14-1a2.15,2.15,0,0,0,2-1.32l.83-.82-.19.09,1.11-1.2-.25,0,1.17-.89c1.35-.92,2.37-2,1.68-3.79l.59-2.15c.84-.52,1-1.14.28-1.89V566.64C815.15,565.94,815,565.33,814.25,564.79Z" transform="translate(-297.05 -348.81)"/><path class="cls-1" d="M819.09,674.73c5.52-1.8,11.22-.88,16.83-1,7.65-.14,15.29-.06,22.94,0,1.78,0,3.69-.47,5.25.94Z" transform="translate(-297.05 -348.81)"/><path class="cls-1" d="M892.87,653.65l-2.54-.92c.09-.31.09-.72.3-.9,1.13-1,1.74-3.86,3.36-2.73S893.79,652.2,892.87,653.65Z" transform="translate(-297.05 -348.81)"/><path class="cls-1" d="M863.6,664.65c-4.5-.25-9,1.06-13.49.06Z" transform="translate(-297.05 -348.81)"/><path class="cls-1" d="M802.15,672.59c-.33.8-.65,1.59-1,2.38-1.13.45-2.58.6-2.43-.91C798.92,672.23,800.73,672.47,802.15,672.59Z" transform="translate(-297.05 -348.81)"/><path class="cls-1" d="M883.23,659.18c-1.12,2.35-3.33,2.45-5.49,2.68Z" transform="translate(-297.05 -348.81)"/><path class="cls-1" d="M887.84,668.63c-.79-2,.08-3.53,1.41-4.92Z" transform="translate(-297.05 -348.81)"/><path class="cls-1" d="M878.22,675.37c1.68-1.38,3,.21,4.56.46Z" transform="translate(-297.05 -348.81)"/><path class="cls-1" d="M813.59,662.86c.69,1.82-.33,2.87-1.68,3.79Z" transform="translate(-297.05 -348.81)"/><path class="cls-1" d="M870.8,663.69c-.81.52-1.58,1.36-2.57.31Z" transform="translate(-297.05 -348.81)"/><path class="cls-1" d="M814.25,564.79c.77.54.9,1.15.2,1.85A1.54,1.54,0,0,1,814.25,564.79Z" transform="translate(-297.05 -348.81)"/><path class="cls-1" d="M833.91,567.69c-.77-.73-.64-1.36.19-1.92C834,566.41,834,567.05,833.91,567.69Z" transform="translate(-297.05 -348.81)"/><path class="cls-1" d="M890.3,660.35a2.31,2.31,0,0,1,.92-2.63A2.78,2.78,0,0,1,890.3,660.35Z" transform="translate(-297.05 -348.81)"/><path class="cls-1" d="M814.46,658.82c.74.75.56,1.37-.28,1.89C814.27,660.08,814.36,659.45,814.46,658.82Z" transform="translate(-297.05 -348.81)"/><path class="cls-1" d="M834.11,656.72c-.86-.55-1-1.17-.22-1.91C834,655.45,834,656.08,834.11,656.72Z" transform="translate(-297.05 -348.81)"/><path class="cls-1" d="M833.53,589.6a2.51,2.51,0,0,1,0-2.7A3.15,3.15,0,0,1,833.53,589.6Z" transform="translate(-297.05 -348.81)"/><path class="cls-1" d="M840.88,663.79a3.29,3.29,0,0,1-2.75-1Z" transform="translate(-297.05 -348.81)"/><path class="cls-1" d="M809.24,669.43a2.15,2.15,0,0,1-2,1.32A2.42,2.42,0,0,1,809.24,669.43Z" transform="translate(-297.05 -348.81)"/><path class="cls-1" d="M813.06,674.74h3.13A3.76,3.76,0,0,1,813.06,674.74Z" transform="translate(-297.05 -348.81)"/><path class="cls-1" d="M875.11,662.77c-.21.45-.47.68-.9.22Z" transform="translate(-297.05 -348.81)"/><path class="cls-1" d="M805.13,671.73c-.2.45-.45.72-.9.25Z" transform="translate(-297.05 -348.81)"/><path class="cls-1" d="M835.38,560.58l1-1.75Z" transform="translate(-297.05 -348.81)"/><path class="cls-1" d="M813.07,561.38l0-.24Z" transform="translate(-297.05 -348.81)"/><path class="cls-1" d="M834.3,564.43l.54-1.62Z" transform="translate(-297.05 -348.81)"/><path class="cls-1" d="M883.78,658.7l.17-.09Z" transform="translate(-297.05 -348.81)"/><path class="cls-1" d="M836.46,661.6l-1.19-1.6Z" transform="translate(-297.05 -348.81)"/><path class="cls-1" d="M884.57,657.68h0Z" transform="translate(-297.05 -348.81)"/><path class="cls-1" d="M892.32,655.88l-.17.24Z" transform="translate(-297.05 -348.81)"/><path class="cls-1" d="M809.88,668.7l.19-.09Z" transform="translate(-297.05 -348.81)"/><path class="cls-1" d="M887.28,672l-.09.24Z" transform="translate(-297.05 -348.81)"/><path class="cls-1" d="M833.53,584.63a.52.52,0,0,1,0-.76l.23.38Z" transform="translate(-297.05 -348.81)"/><path class="cls-1" d="M866.16,674.7c.33,0,.67,0,1,0A.56.56,0,0,1,866.16,674.7Z" transform="translate(-297.05 -348.81)"/><path class="cls-1" d="M885.21,676.16a1.53,1.53,0,0,1,.8-.47C886,676.3,885.81,676.58,885.21,676.16Z" transform="translate(-297.05 -348.81)"/><path class="cls-1" d="M810.74,667.54l.25,0Z" transform="translate(-297.05 -348.81)"/></svg>