<svg id="Layer_1" data-name="Layer 1" xmlns="http://www.w3.org/2000/svg" viewBox="0 0 844.28 116.9"><defs><style>.cls-1{fill:#fff;}</style></defs><path class="cls-1" d="M-72.32,365q0-13.5,8.76-20.37t23.47-6.87a44,44,0,0,1,16.79,3A24.49,24.49,0,0,1-12,349.84q4.1,6.11,4.09,15.19T-12,380.18a24.54,24.54,0,0,1-11.34,9,43.76,43.76,0,0,1-16.79,3q-14.71,0-23.47-6.83T-72.32,365Zm40,15.31A109,109,0,0,0-31.49,365a108.06,108.06,0,0,0-.81-15.35c-.53-3.48-1.42-5.89-2.65-7.23a6.64,6.64,0,0,0-5.14-2,6.77,6.77,0,0,0-5.23,2q-1.84,2-2.65,7.23a109.92,109.92,0,0,0-.8,15.35,110.87,110.87,0,0,0,.8,15.39q.81,5.27,2.65,7.28a6.76,6.76,0,0,0,5.23,2,6.63,6.63,0,0,0,5.14-2C-33.72,386.28-32.83,383.85-32.3,380.34Z" transform="translate(72.32 -278.44)"/><path class="cls-1" d="M78.21,342a5.47,5.47,0,0,0-2.13,3.41,33.87,33.87,0,0,0-.52,6.95v25.4a33.74,33.74,0,0,0,.52,6.95,5.47,5.47,0,0,0,2.13,3.42,11.22,11.22,0,0,0,5.06,1.52v1.53H46v-1.53a11.82,11.82,0,0,0,4.5-1.24,4.34,4.34,0,0,0,1.85-2.89,31.3,31.3,0,0,0,.48-6.47V348.56l-10.76,22.9q4.1,8.21,7.23,10.77v.8q-13.11,2.82-19.21,11h-.88L7.81,350.24v1.29q.41,6.75.4,12.46v8.28a17.84,17.84,0,0,0,2,8.72,16.4,16.4,0,0,0,5.3,5.9,17,17,0,0,0,7,2.73v1.53H-6.34v-1.53q6.36-.48,9.17-4.74t2.81-12V358.52q0-9.07-2.73-13.3t-9.25-4.78v-1.53H26.21l14.31,29.42,13.74-29.42h29v1.53A11.33,11.33,0,0,0,78.21,342Z" transform="translate(72.32 -278.44)"/><path class="cls-1" d="M157.13,386a10.13,10.13,0,0,0,6.43,3.61v1.53H123.38v-1.53c3.54,0,5.3-1.39,5.3-4.17q0-3.13-3.21-9.25H103.69a7.73,7.73,0,0,0-.08,1.29,10,10,0,0,0,1.93,6.15,14.38,14.38,0,0,0,4.58,4.1,15.65,15.65,0,0,0,5,1.88v1.53H84v-1.53q4.57-.56,9-5.06t10-14.63L112,353.22q-4.11-5.48-8.12-7.4V345a52.5,52.5,0,0,0,13.38-3.37,33.16,33.16,0,0,0,10.33-6.43h1l22.42,41.22A54.36,54.36,0,0,0,157.13,386Zm-53-12.3H124L115.74,359l-2.25-3.53-7.47,14A20.3,20.3,0,0,0,104.17,373.71Z" transform="translate(72.32 -278.44)"/><path class="cls-1" d="M229.19,386.37a13.63,13.63,0,0,0,6.63,3.25v1.53H206.64L199,375.72a38.32,38.32,0,0,0-2.53-4.38,8.74,8.74,0,0,0-2-2.13v-.8a22.72,22.72,0,0,0,7.75-5.63,28.05,28.05,0,0,0,5.27-7.71h1l3.94,7.47a22.32,22.32,0,0,0,1-7.23,20.45,20.45,0,0,0-1.4-8.4,8.16,8.16,0,0,0-4.14-4.22,18,18,0,0,0-7.16-1.21H192.9v38.26a24.35,24.35,0,0,0,.52,5.79,4.8,4.8,0,0,0,1.81,2.89,8.66,8.66,0,0,0,3.78,1.2v1.53H163v-1.53a10.12,10.12,0,0,0,4.94-1.36,5.75,5.75,0,0,0,2.25-3.54,30.11,30.11,0,0,0,.61-7v-25.4a34.61,34.61,0,0,0-.52-6.95,5.43,5.43,0,0,0-2.17-3.41,11.67,11.67,0,0,0-5.11-1.53v-1.53h35.6q12.15,0,19.17.73a24.87,24.87,0,0,1,11.46,3.69q4.41,3,4.42,9.25,0,6.82-5.19,9.32t-13.86,2.49l-.16.08,8.28,13.66A43.75,43.75,0,0,0,229.19,386.37Z" transform="translate(72.32 -278.44)"/><path class="cls-1" d="M338.25,386.37a13.63,13.63,0,0,0,6.63,3.25v1.53H315.7l-7.63-15.43a38.32,38.32,0,0,0-2.53-4.38,8.74,8.74,0,0,0-2.05-2.13v-.8a22.72,22.72,0,0,0,7.75-5.63,28.05,28.05,0,0,0,5.27-7.71h1l3.94,7.47a22.29,22.29,0,0,0,1-7.23,20.27,20.27,0,0,0-1.41-8.4,8.16,8.16,0,0,0-4.14-4.22,18,18,0,0,0-7.15-1.21H302v38.26a24.35,24.35,0,0,0,.52,5.79,4.8,4.8,0,0,0,1.81,2.89,8.66,8.66,0,0,0,3.78,1.2v1.53h-36v-1.53a10.2,10.2,0,0,0,4.95-1.36,5.84,5.84,0,0,0,2.25-3.54,30.79,30.79,0,0,0,.6-7v-25.4a33.87,33.87,0,0,0-.52-6.95,5.39,5.39,0,0,0-2.17-3.41,11.67,11.67,0,0,0-5.11-1.53v-1.53h35.61q12.13,0,19.16.73a24.87,24.87,0,0,1,11.46,3.69q4.41,3,4.42,9.25,0,6.82-5.19,9.32t-13.86,2.49l-.16.08,8.28,13.66A44.16,44.16,0,0,0,338.25,386.37Z" transform="translate(72.32 -278.44)"/><path class="cls-1" d="M365.25,390.31c-2.27-.83-4.89-1.94-7.83-3.34-2.41-1.12-4.48-2-6.19-2.69a31.21,31.21,0,0,0-5.63-1.57v-1.44a10.64,10.64,0,0,0,5.23-3.26c1.55-1.69,2.33-4.16,2.33-7.43V353.14a40.75,40.75,0,0,0-.52-7.6,5.65,5.65,0,0,0-2.09-3.57,11.23,11.23,0,0,0-5.11-1.53v-1.53h38.74v1.53c-3.05.37-5.2,1.5-6.43,3.37s-1.85,5-1.85,9.33v25.47q0,11.26,13,11.26,6.51,0,10.05-3.26t3.53-9.44V363.26a49.3,49.3,0,0,0-1.2-12,14.67,14.67,0,0,0-4.06-7.31,15.06,15.06,0,0,0-7.84-3.54v-1.53h27.73v1.53a10.61,10.61,0,0,0-9.12,5.79q-2.85,5.29-2.85,13.66v11.65q0,4.83,2.25,6.91a11.67,11.67,0,0,0,5.62,2.82v1.44a36.21,36.21,0,0,0-9.24,4.58,35.66,35.66,0,0,1-8.28,4.5,32.57,32.57,0,0,1-11.09,1.53,60.85,60.85,0,0,1-11-.88A51.7,51.7,0,0,1,365.25,390.31Z" transform="translate(72.32 -278.44)"/><path class="cls-1" d="M487.13,365q0,13.19-8.64,19.65t-23.34,6.47H418.42v-1.53a11.54,11.54,0,0,0,5.1-1.52,5.39,5.39,0,0,0,2.17-3.42,33.74,33.74,0,0,0,.52-6.95v-25.4a33.87,33.87,0,0,0-.52-6.95,5.39,5.39,0,0,0-2.17-3.41,11.66,11.66,0,0,0-5.1-1.53v-1.53h36.65q14.7,0,23.38,6.43T487.13,365Zm-27.64,21.66q2.08-2,3.09-7.07a81.06,81.06,0,0,0,1-14.67,79.67,79.67,0,0,0-1-14.54q-1-5.07-3.09-7a8.26,8.26,0,0,0-5.79-1.93H449v47.18h4.74A8.14,8.14,0,0,0,459.49,386.69Z" transform="translate(72.32 -278.44)"/><path class="cls-1" d="M558.66,377.57q0,6.1-4.74,9a28.83,28.83,0,0,1-12.13,3.74,186.71,186.71,0,0,1-19.21.8H489.87v-1.53a11.54,11.54,0,0,0,5.1-1.52,5.39,5.39,0,0,0,2.17-3.42,33.74,33.74,0,0,0,.52-6.95v-25.4a33.87,33.87,0,0,0-.52-6.95A5.39,5.39,0,0,0,495,342a11.66,11.66,0,0,0-5.1-1.53v-1.53h30.54q12,0,19.05.69A28.09,28.09,0,0,1,551.15,343q4.62,2.73,4.62,8.6,0,11.58-28.13,12.14,13.59.24,22.3,3T558.66,377.57Zm-38.25-14.79h2.49q9.48,0,9.48-10.61,0-5.7-2.73-8.19a10.39,10.39,0,0,0-7.31-2.5h-1.93Zm11.89,22.75q2.82-3.13,2.82-9,0-11.25-10.77-11.25h-3.94v23.39h3.94C527.77,388.66,530.43,387.62,532.3,385.53Z" transform="translate(72.32 -278.44)"/><path class="cls-1" d="M615.24,395.33H614l-2.82-4.18H560.51v-1.53a11.55,11.55,0,0,0,5.11-1.52,5.43,5.43,0,0,0,2.17-3.42,34.47,34.47,0,0,0,.52-6.95v-25.4a34.61,34.61,0,0,0-.52-6.95,5.43,5.43,0,0,0-2.17-3.41,11.67,11.67,0,0,0-5.11-1.53v-1.53h49.43l2.65-3.77h1.21l9.88,26.92-1,.56A86.43,86.43,0,0,0,607.09,348a38,38,0,0,0-16-6.83V362.7a18.21,18.21,0,0,0,6.43-1.41,15.81,15.81,0,0,0,5.63-3.77,9.62,9.62,0,0,0,2.65-5.83h1.53v26.6l-1.53-.08q-.48-7.4-4.82-10.12a18.7,18.7,0,0,0-9.89-2.82V388.9a41.89,41.89,0,0,0,17.44-7.11,62.32,62.32,0,0,0,15.59-15.07l1.13.56Z" transform="translate(72.32 -278.44)"/><path class="cls-1" d="M693.64,386.37a13.72,13.72,0,0,0,6.63,3.25v1.53H671.1l-7.64-15.43a36.87,36.87,0,0,0-2.53-4.38,8.56,8.56,0,0,0-2-2.13v-.8a22.75,22.75,0,0,0,7.76-5.63,28,28,0,0,0,5.26-7.71H673l3.94,7.47a22.32,22.32,0,0,0,1-7.23,20.27,20.27,0,0,0-1.41-8.4,8.09,8.09,0,0,0-4.14-4.22,17.94,17.94,0,0,0-7.15-1.21h-7.79v38.26a24.35,24.35,0,0,0,.52,5.79,4.8,4.8,0,0,0,1.81,2.89,8.57,8.57,0,0,0,3.77,1.2v1.53h-36v-1.53a10.16,10.16,0,0,0,4.94-1.36,5.75,5.75,0,0,0,2.25-3.54,30.79,30.79,0,0,0,.6-7v-25.4a33.87,33.87,0,0,0-.52-6.95,5.39,5.39,0,0,0-2.17-3.41,11.66,11.66,0,0,0-5.1-1.53v-1.53h35.6q12.13,0,19.17.73a24.79,24.79,0,0,1,11.45,3.69q4.43,3,4.42,9.25,0,6.82-5.18,9.32t-13.86,2.49l-.16.08,8.27,13.66A44.58,44.58,0,0,0,693.64,386.37Z" transform="translate(72.32 -278.44)"/><path class="cls-1" d="M772,364.71v1.53a12.46,12.46,0,0,0-5.34,1.36,4.43,4.43,0,0,0-2,2.86,29.06,29.06,0,0,0-.4,5.74v16.32h-1.53l-11.33-5.79a41.39,41.39,0,0,1-8.48,4.1,29.61,29.61,0,0,1-9.6,1.45,37.68,37.68,0,0,1-15.43-3.06,24.81,24.81,0,0,1-11-9.2q-4.07-6.15-4.06-15,0-13.57,8.27-20.41t22.35-6.83a32.79,32.79,0,0,1,8.36,1,61.13,61.13,0,0,1,8,2.81l6.91-4.58h1.21l6.83,25.64-1.29.56a211.77,211.77,0,0,0-17.88-17.56q-6.47-5.34-10.65-5.34a6.43,6.43,0,0,0-5,2q-1.85,2-2.73,7.15a91.84,91.84,0,0,0-.89,14.63,138.58,138.58,0,0,0,.65,15.47q.64,5.34,2.53,7.79a6.61,6.61,0,0,0,5.59,2.46c2.51,0,4.27-.87,5.26-2.62s1.49-4.3,1.49-7.67v-2.81a27.9,27.9,0,0,0-.49-6,5.05,5.05,0,0,0-2-3.14,9.79,9.79,0,0,0-4.78-1.32v-1.53Z" transform="translate(72.32 -278.44)"/><path class="cls-1" d="M-11.92,278.44l18,43.18H2.37l-5-11.94H-25.07L-30,321.62h-3.78l18.06-43.18Zm-11.81,28.14H-3.88l-9.92-23.85Z" transform="translate(72.32 -278.44)"/><path class="cls-1" d="M14.88,278.44l26.41,37.67V278.44h3.44v43.18H41.08L14.7,284v37.67H11.26V278.44Z" transform="translate(72.32 -278.44)"/><path class="cls-1" d="M66.29,278.44a22.26,22.26,0,0,1,16,6.07,22,22,0,0,1,0,31,22.21,22.21,0,0,1-16,6.11h-13V278.44Zm-9.59,40.1h9.2a18.72,18.72,0,0,0,13.59-5.31,18.69,18.69,0,0,0,0-26.42,18.81,18.81,0,0,0-13.59-5.27H56.7Z" transform="translate(72.32 -278.44)"/></svg>