<?xml version="1.0" encoding="utf-8"?>
<!-- Generator: Adobe Illustrator 26.0.3, SVG Export Plug-In . SVG Version: 6.00 Build 0)  -->
<svg version="1.1" id="Layer_1" xmlns="http://www.w3.org/2000/svg" xmlns:xlink="http://www.w3.org/1999/xlink" x="0px" y="0px"
	 viewBox="0 0 380.4 95.7" style="enable-background:new 0 0 380.4 95.7;" xml:space="preserve">
<style type="text/css">
	.st0{enable-background:new    ;}
	.st1{fill:#FFFFFF;}
</style>
<g class="st0">
	<path class="st1" d="M62.3,61.9c2,1.6,4.2,2.6,6.7,3v1.4H43.4L35,50c-1-1.9-1.9-3.5-2.8-4.8c-0.9-1.3-1.6-2-2.2-2.4V42
		c1.4-0.5,2.9-1.3,4.4-2.5h0.1c1.5-1.2,2.9-2.7,4.1-4.3c1.3-1.7,2.2-3.3,2.8-5h0.8l4.2,8c1.1-1.5,1.7-4.3,1.7-8.4c0-4-0.6-7-1.8-9
		c-1.2-2-2.7-3.3-4.7-3.9s-4.4-0.9-7.4-0.9h-6.6v39.8c0,2.4,0.2,4.1,0.6,5.3c0.4,1.2,1,2.1,2,2.6c0.9,0.5,2.4,0.9,4.3,1.1v1.3H1.8
		V65c2.2-0.2,3.9-0.6,5-1.3c1.1-0.6,1.8-1.7,2.2-3.1c0.4-1.4,0.6-3.5,0.6-6.3V26c0-2.8-0.2-4.9-0.5-6.2c-0.3-1.4-1.1-2.4-2.1-3
		c-1.1-0.6-2.8-1.1-5.1-1.4v-1.3h32.5c7.1,0,12.7,0.3,17,0.8c4.2,0.5,7.7,1.8,10.5,3.8c2.8,2,4.1,5.1,4.1,9.4c0,4.5-1.6,7.6-4.9,9.4
		c-3.2,1.8-7.6,2.7-13,2.7l8.1,14.1C58.3,57.7,60.3,60.3,62.3,61.9z"/>
</g>
<g class="st0">
	<path class="st1" d="M139.4,14.1v1.3c-2.9,0.3-5.7,1.7-8.3,4.3c-2.6,2.5-5.6,6.4-9,11.6l-10.5,16.6v6.7c0,2.8,0.2,4.9,0.5,6.2
		s1.1,2.4,2.1,3c1.1,0.6,2.8,1.1,5.1,1.4v1.3H85.8V65c2.4-0.3,4.1-0.7,5.1-1.4c1.1-0.6,1.8-1.6,2.1-3c0.3-1.4,0.5-3.4,0.5-6.2v-4.7
		l-14-22.1c-1.8-2.8-3.3-5-4.5-6.5c-1.2-1.6-2.6-2.9-4.1-3.9c-1.5-1-3.2-1.6-5.1-1.8v-1.3h36v1.3c-3.8,0-5.7,1.3-5.7,4
		c0,1.9,1,4.5,3.1,7.9L110,45.1l3.4-6.8c3.1-4.8,4.6-9.2,4.6-13.1c0-2.8-0.8-5.1-2.3-6.8c-1.5-1.7-3.5-2.7-5.8-3v-1.3H139.4z"/>
</g>
<g class="st0">
	<path class="st1" d="M200,40.2c0,5.8-1.3,10.7-3.9,14.6c-2.6,3.9-6.2,6.8-10.7,8.7c-4.6,1.9-9.8,2.8-15.7,2.8h-34.1V65
		c2.4-0.3,4.1-0.7,5.1-1.4c1.1-0.6,1.8-1.6,2.1-3c0.3-1.4,0.5-3.4,0.5-6.2V26c0-2.8-0.2-4.9-0.5-6.2c-0.3-1.4-1.1-2.4-2.1-3
		c-1.1-0.6-2.8-1.1-5.1-1.4v-1.3h34.1c9.1,0,16.4,2.2,22,6.5C197.3,24.9,200,31.4,200,40.2z M176.3,62.1c1.7-1.4,2.9-3.9,3.7-7.4
		c0.8-3.5,1.2-8.3,1.2-14.5c0-6.2-0.4-11.1-1.2-14.5c-0.8-3.5-2.1-5.9-3.7-7.3c-1.7-1.4-3.9-2.1-6.6-2.1h-8.4v48.1h8.4
		C172.5,64.2,174.7,63.5,176.3,62.1z"/>
</g>
<g class="st0">
	<path class="st1" d="M207,63.7c1.1-0.6,1.8-1.6,2.1-3s0.5-3.4,0.5-6.2V26c0-2.8-0.2-4.9-0.5-6.2s-1.1-2.4-2.1-3
		c-1.1-0.6-2.8-1.1-5.1-1.4v-1.3h33.5v1.3c-2.4,0.3-4.1,0.7-5.1,1.4c-1.1,0.6-1.8,1.6-2.1,3s-0.5,3.4-0.5,6.2v28.5
		c0,2.8,0.2,4.9,0.5,6.2s1.1,2.4,2.1,3c1.1,0.6,2.8,1.1,5.1,1.4v1.3h-33.5V65C204.3,64.8,206,64.3,207,63.7z"/>
	<path class="st1" d="M292.9,30.9v20c1.6,1.9,3,3.4,4.2,4.3c1.2,1,2.6,1.8,4.2,2.5v0.8c-3.2,1-5.8,2.3-7.8,4c-2,1.7-4,4.1-6.1,7.2
		h-0.7L247.5,28c0.3,3.3,0.4,8.3,0.4,15v6.4c0,4.4,1.5,8.1,4.4,10.8c2.9,2.8,6.7,4.4,11.2,4.7v1.3h-29.1V65
		c7.6-0.6,11.3-5.8,11.3-15.6V31.8c0-5.4-0.8-9.3-2.5-11.9c-1.6-2.6-4.5-4.1-8.6-4.5v-1.3h24l32.2,34.7c-0.2-3.1-0.2-6.5-0.2-10.4
		v-5.8c0-5.2-1.4-9.3-4.2-12.2c-2.8-2.9-6.5-4.6-11.1-5v-1.3h28.8v1.3C296.7,16,292.9,21.2,292.9,30.9z"/>
	<path class="st1" d="M369.8,39.9v1.3c-2.5,0.2-4.3,0.7-5.4,1.3c-1.1,0.7-1.7,1.6-2,2.9c-0.3,1.3-0.4,3.4-0.4,6.4v15.6h-1.2
		l-9.2-6.3c-5.4,4.2-11.5,6.3-18.2,6.3c-5.5,0-10.5-1-15-3.1c-4.5-2-8.1-5.1-10.7-9.2s-4-9.1-4-15c0-6.1,1.3-11.1,3.8-15.2
		c2.5-4.1,6-7.1,10.4-9.1s9.4-3,15-3c3.3,0,6.3,0.4,8.8,1.2c2.6,0.8,5.1,1.9,7.5,3.3l5.2-4.8h1.1l6.8,24.3l-1.3,0.6
		c-6.5-7.6-12-13.2-16.4-16.9s-8.2-5.5-11.4-5.5c-3.6,0-6.3,1.8-8.2,5.4c-1.9,3.6-2.8,9.9-2.8,18.8c0,6.4,0.4,11.5,1.2,15.3
		c0.8,3.8,2.1,6.5,4,8.2c1.9,1.7,4.4,2.6,7.7,2.6c3.6,0,5.9-1.1,7.1-3.2s1.7-4.6,1.7-7.5v-4.1c0-2-0.1-3.7-0.4-4.9
		c-0.3-1.3-1-2.3-2.2-3.1c-1.2-0.8-2.9-1.3-5.2-1.3v-1.3H369.8z"/>
</g>
</svg>
