<?xml version="1.0" encoding="utf-8"?>
<!-- Generator: Adobe Illustrator 26.0.3, SVG Export Plug-In . SVG Version: 6.00 Build 0)  -->
<svg version="1.1" id="Layer_1" xmlns="http://www.w3.org/2000/svg" xmlns:xlink="http://www.w3.org/1999/xlink" x="0px" y="0px"
	 viewBox="0 0 508.2 95.7" style="enable-background:new 0 0 508.2 95.7;" xml:space="preserve">
<style type="text/css">
	.st0{enable-background:new    ;}
	.st1{fill:#FFFFFF;}
</style>
<g class="st0">
	<path class="st1" d="M33.2,28.7c5.5,2,10,3.8,13.6,5.5c3.6,1.7,6.7,4,9.4,6.7c2.6,2.8,3.9,6,3.9,9.8c0,6.5-2.6,10.9-7.7,13.2
		c-5.1,2.3-10.4,3.4-16,3.4c-4.2,0-7.9-0.4-11-1.3c-3.1-0.9-6.3-2.2-9.7-3.9l-5.1,5.7H9.6l-5-27.5L6.2,40c4.9,8.5,9.9,14.9,15,19
		c5.1,4.2,10.4,6.3,16,6.3c2.5,0,4.9-0.5,7.3-1.5c2.3-1,3.5-2.6,3.5-4.8c0-1.6-0.7-3.1-2.2-4.4c-1.5-1.3-3.3-2.5-5.5-3.5
		s-5.3-2.3-9.1-3.8c-5.2-2-9.4-3.8-12.5-5.4s-5.9-3.5-8.2-5.9C8.1,33.6,7,30.8,7,27.6c0-5.3,2.1-9,6.4-11.3
		c4.3-2.2,9.4-3.4,15.5-3.4c3.3,0,6.3,0.3,9.1,1c2.8,0.7,5.7,1.7,8.6,3l5.7-4.6h1.2l5.2,21.4l-1.4,0.5c-3.9-5.3-7.5-9.4-10.8-12.2
		c-3.3-2.8-6.5-4.7-9.4-5.6c-2.9-0.9-6-1.4-9.3-1.4c-2.7,0-4.8,0.4-6.5,1.3c-1.6,0.9-2.5,2.1-2.5,3.6s1.1,2.9,3.3,4.1
		S28.1,26.8,33.2,28.7z"/>
</g>
<g class="st0">
	<path class="st1" d="M127.9,37.9l-1.2,0.6c-3-4.5-5.6-8.1-7.7-10.8c-2.1-2.7-4.4-5-7-6.9c-2.5-1.9-5.4-3.3-8.5-4.2v37.8
		c0,2.8,0.2,4.9,0.5,6.2c0.3,1.4,1.1,2.4,2.1,3c1.1,0.6,2.8,1.1,5.1,1.4v1.3H77.7V65c2.4-0.3,4.1-0.7,5.1-1.4c1.1-0.6,1.8-1.6,2.1-3
		s0.5-3.4,0.5-6.2V16.6c-3.1,0.9-5.9,2.3-8.5,4.2s-4.9,4.2-7,6.9c-2.1,2.7-4.7,6.3-7.8,10.8l-1.1-0.6l8.6-27.5H71l2.2,3.6h42.8
		l2.2-3.6h1.2L127.9,37.9z"/>
</g>
<g class="st0">
	<path class="st1" d="M184,59.5c1,1.5,2.2,2.8,3.6,3.7c1.3,1,3,1.6,4.9,1.8v1.3H157V65c3.9,0,5.9-1.4,5.9-4.3c0-1.8-0.9-4.3-2.6-7.6
		l-1.2-2.2h-23.6c-0.3,0.9-0.4,2-0.4,3.1c0,2,0.5,3.9,1.6,5.5c1,1.6,2.4,2.9,4,3.8s3.3,1.5,4.9,1.7v1.3h-29V65
		c3.1-0.4,5.9-1.8,8.6-4.4s5.5-6.4,8.3-11.5l12-22.8c-2.3-3.2-4.8-5.4-7.7-6.5v-0.8c3.9-0.4,7.6-1.4,10.9-2.8s6.2-3.2,8.6-5.4h0.7
		l22.3,42.3C181.7,55.9,183,58,184,59.5z M148.8,31.8c-0.5-1-1.2-2.1-2-3.5l-10,19l-0.7,1.4h21.9L148.8,31.8z"/>
</g>
<g class="st0">
	<path class="st1" d="M250.9,61.9c2,1.6,4.2,2.6,6.7,3v1.4H232L223.6,50c-1-1.9-1.9-3.5-2.8-4.8c-0.9-1.3-1.6-2-2.2-2.4V42
		c1.4-0.5,2.9-1.3,4.4-2.5h0.1c1.5-1.2,2.9-2.7,4.1-4.3c1.3-1.7,2.2-3.3,2.8-5h0.8l4.2,8c1.1-1.5,1.7-4.3,1.7-8.4c0-4-0.6-7-1.8-9
		c-1.2-2-2.7-3.3-4.7-3.9s-4.4-0.9-7.4-0.9h-6.6v39.8c0,2.4,0.2,4.1,0.6,5.3c0.4,1.2,1,2.1,2,2.6c0.9,0.5,2.4,0.9,4.3,1.1v1.3h-32.5
		V65c2.2-0.2,3.9-0.6,5-1.3c1.1-0.6,1.8-1.7,2.2-3.1c0.4-1.4,0.6-3.5,0.6-6.3V26c0-2.8-0.2-4.9-0.5-6.2c-0.3-1.4-1.1-2.4-2.1-3
		c-1.1-0.6-2.8-1.1-5.1-1.4v-1.3h32.5c7.1,0,12.7,0.3,17,0.8c4.2,0.5,7.7,1.8,10.5,3.8c2.8,2,4.1,5.1,4.1,9.4c0,4.5-1.6,7.6-4.9,9.4
		c-3.2,1.8-7.6,2.7-13,2.7l8.1,14.1C246.9,57.7,248.9,60.3,250.9,61.9z"/>
	<path class="st1" d="M315.7,61.9c2,1.6,4.2,2.6,6.7,3v1.4h-25.6L288.4,50c-1-1.9-1.9-3.5-2.8-4.8s-1.6-2-2.2-2.4V42
		c1.4-0.5,2.9-1.3,4.4-2.5h0.1c1.5-1.2,2.9-2.7,4.1-4.3s2.2-3.3,2.8-5h0.8l4.2,8c1.1-1.5,1.7-4.3,1.7-8.4c0-4-0.6-7-1.8-9
		c-1.2-2-2.7-3.3-4.7-3.9c-2-0.6-4.4-0.9-7.4-0.9H281v39.8c0,2.4,0.2,4.1,0.6,5.3c0.4,1.2,1,2.1,2,2.6c0.9,0.5,2.4,0.9,4.3,1.1v1.3
		h-32.5V65c2.2-0.2,3.9-0.6,5-1.3c1.1-0.6,1.8-1.7,2.2-3.1c0.4-1.4,0.6-3.5,0.6-6.3V26c0-2.8-0.2-4.9-0.5-6.2s-1.1-2.4-2.1-3
		c-1.1-0.6-2.8-1.1-5.1-1.4v-1.3h32.5c7.1,0,12.7,0.3,17,0.8c4.2,0.5,7.7,1.8,10.5,3.8c2.8,2,4.1,5.1,4.1,9.4c0,4.5-1.6,7.6-4.9,9.4
		c-3.2,1.8-7.6,2.7-13,2.7l8.1,14.1C311.7,57.7,313.7,60.3,315.7,61.9z"/>
	<path class="st1" d="M325.2,63.7c1.1-0.6,1.8-1.6,2.1-3s0.5-3.4,0.5-6.2V26c0-2.8-0.2-4.9-0.5-6.2s-1.1-2.4-2.1-3
		c-1.1-0.6-2.8-1.1-5.1-1.4v-1.3h33.5v1.3c-2.4,0.3-4.1,0.7-5.1,1.4c-1.1,0.6-1.8,1.6-2.1,3s-0.5,3.4-0.5,6.2v28.5
		c0,2.8,0.2,4.9,0.5,6.2s1.1,2.4,2.1,3c1.1,0.6,2.8,1.1,5.1,1.4v1.3H320V65C322.4,64.8,324.1,64.3,325.2,63.7z"/>
	<path class="st1" d="M411,30.9v20c1.6,1.9,3,3.4,4.2,4.3c1.2,1,2.6,1.8,4.2,2.5v0.8c-3.2,1-5.8,2.3-7.8,4c-2,1.7-4,4.1-6.1,7.2
		h-0.7L365.6,28c0.3,3.3,0.4,8.3,0.4,15v6.4c0,4.4,1.5,8.1,4.4,10.8c2.9,2.8,6.7,4.4,11.2,4.7v1.3h-29.1V65
		c7.6-0.6,11.3-5.8,11.3-15.6V31.8c0-5.4-0.8-9.3-2.5-11.9s-4.5-4.1-8.6-4.5v-1.3h24l32.2,34.7c-0.2-3.1-0.2-6.5-0.2-10.4v-5.8
		c0-5.2-1.4-9.3-4.2-12.2c-2.8-2.9-6.5-4.6-11.1-5v-1.3h28.8v1.3C414.8,16,411,21.2,411,30.9z"/>
	<path class="st1" d="M487.9,39.9v1.3c-2.5,0.2-4.3,0.7-5.4,1.3c-1.1,0.7-1.7,1.6-2,2.9c-0.3,1.3-0.4,3.4-0.4,6.4v15.6h-1.2
		l-9.2-6.3c-5.4,4.2-11.5,6.3-18.2,6.3c-5.5,0-10.5-1-15-3.1c-4.5-2-8.1-5.1-10.7-9.2s-4-9.1-4-15c0-6.1,1.3-11.1,3.8-15.2
		c2.5-4.1,6-7.1,10.4-9.1s9.4-3,15-3c3.3,0,6.3,0.4,8.8,1.2c2.6,0.8,5.1,1.9,7.5,3.3l5.2-4.8h1.1l6.8,24.3l-1.3,0.6
		c-6.5-7.6-12-13.2-16.4-16.9s-8.2-5.5-11.4-5.5c-3.6,0-6.3,1.8-8.2,5.4c-1.9,3.6-2.8,9.9-2.8,18.8c0,6.4,0.4,11.5,1.2,15.3
		c0.8,3.8,2.1,6.5,4,8.2c1.9,1.7,4.4,2.6,7.7,2.6c3.6,0,5.9-1.1,7.1-3.2s1.7-4.6,1.7-7.5v-4.1c0-2-0.1-3.7-0.4-4.9
		c-0.3-1.3-1-2.3-2.2-3.1c-1.2-0.8-2.9-1.3-5.2-1.3v-1.3H487.9z"/>
</g>
</svg>
